<svg width="537" height="108" viewBox="0 0 537 108" fill="none" xmlns="http://www.w3.org/2000/svg">
<path d="M157.04 60.1167H176.559C176.584 60.811 176.597 61.4282 176.597 61.9683C176.597 69.5031 174.128 75.5335 169.191 80.0596C164.253 84.5856 157.734 86.8486 149.634 86.8486C139.939 86.8486 132.713 84.097 127.955 78.5938C123.198 73.0648 120.819 66.5329 120.819 58.998C120.819 51.1032 123.249 44.5456 128.109 39.3252C132.97 34.1048 139.566 31.4946 147.898 31.4946C155.381 31.4946 161.656 33.7705 166.722 38.3223V32.3433H173.55V49.9717H166.722C165.436 47.0143 163.148 44.3913 159.856 42.1025C156.59 39.7881 152.848 38.6309 148.631 38.6309C142.768 38.6309 138.139 40.611 134.744 44.5713C131.35 48.5316 129.652 53.3019 129.652 58.8823C129.652 65.2856 131.581 70.3646 135.438 74.1191C139.322 77.8737 143.989 79.751 149.441 79.751C153.71 79.751 157.516 78.568 160.859 76.2021C164.202 73.8105 166.156 70.686 166.722 66.8286H157.04V60.1167ZM222.693 69.1816H191.294C191.757 72.6276 193.12 75.4178 195.383 77.5522C197.646 79.6867 200.539 80.7539 204.062 80.7539C209.18 80.7539 213.23 78.6966 216.213 74.582L222.693 77.4365C220.585 80.7025 217.846 83.1326 214.477 84.7271C211.108 86.2957 207.585 87.0801 203.908 87.0801C198.199 87.0801 193.313 85.3057 189.25 81.7568C185.212 78.1823 183.193 73.3734 183.193 67.3301C183.193 61.5954 185.161 56.8765 189.095 53.1733C193.056 49.4702 197.594 47.6187 202.712 47.6187C207.727 47.6187 212.265 49.4316 216.329 53.0576C220.417 56.6579 222.539 62.0326 222.693 69.1816ZM215.133 63.8584C214.618 61.2354 213.256 58.8695 211.044 56.7607C208.832 54.6263 206.119 53.5591 202.905 53.5591C199.973 53.5591 197.466 54.5234 195.383 56.4521C193.3 58.3551 192.027 60.8239 191.564 63.8584H215.133ZM241.633 48.6602V53.1733C246.339 49.7788 250.634 48.0815 254.517 48.0815C256.934 48.0815 258.927 48.6602 260.496 49.8174C262.09 50.9489 263.132 52.3504 263.621 54.022C264.109 55.6678 264.354 58.0851 264.354 61.2739V79.481H270.641V86H257.024V61.5825C257.024 58.7537 256.6 56.915 255.751 56.0664C254.903 55.1921 253.861 54.7549 252.627 54.7549C249.387 54.7549 245.722 56.3364 241.633 59.4995V79.481H248.075V86H227.747V79.481H234.304V55.1792H227.747V48.6602H241.633ZM273.92 67.3301C273.92 61.5697 275.823 56.8507 279.629 53.1733C283.435 49.4702 288.077 47.6187 293.554 47.6187C298.929 47.6187 303.545 49.4445 307.402 53.0962C311.26 56.7222 313.188 61.4668 313.188 67.3301C313.188 73.1934 311.26 77.9508 307.402 81.6025C303.571 85.2542 298.955 87.0801 293.554 87.0801C288 87.0801 283.332 85.2285 279.552 81.5254C275.797 77.8223 273.92 73.0905 273.92 67.3301ZM281.673 67.3301C281.673 71.0075 282.818 74.0291 285.106 76.395C287.421 78.7352 290.237 79.9053 293.554 79.9053C296.923 79.9053 299.739 78.7223 302.002 76.3564C304.291 73.9648 305.435 70.9561 305.435 67.3301C305.435 63.6784 304.278 60.6696 301.963 58.3037C299.649 55.9378 296.846 54.7549 293.554 54.7549C290.108 54.7549 287.267 55.9635 285.029 58.3809C282.792 60.7982 281.673 63.7812 281.673 67.3301ZM324.414 79.2881V39.0552H317.625V32.3433H359.246V48.5059H352.611V39.0552H332.514V54.9478H349.834V61.6597H332.514V79.2881H339.38V86H317.625V79.2881H324.414ZM356.469 67.3301C356.469 61.5697 358.372 56.8507 362.178 53.1733C365.984 49.4702 370.625 47.6187 376.103 47.6187C381.478 47.6187 386.094 49.4445 389.951 53.0962C393.809 56.7222 395.737 61.4668 395.737 67.3301C395.737 73.1934 393.809 77.9508 389.951 81.6025C386.119 85.2542 381.503 87.0801 376.103 87.0801C370.548 87.0801 365.881 85.2285 362.101 81.5254C358.346 77.8223 356.469 73.0905 356.469 67.3301ZM364.222 67.3301C364.222 71.0075 365.367 74.0291 367.655 76.395C369.97 78.7352 372.786 79.9053 376.103 79.9053C379.472 79.9053 382.288 78.7223 384.551 76.3564C386.84 73.9648 387.984 70.9561 387.984 67.3301C387.984 63.6784 386.827 60.6696 384.512 58.3037C382.198 55.9378 379.395 54.7549 376.103 54.7549C372.657 54.7549 369.815 55.9635 367.578 58.3809C365.341 60.7982 364.222 63.7812 364.222 67.3301ZM408.004 79.481V55.1792H400.482V48.6602H413.867V57.0693C414.69 54.8835 415.834 53.0705 417.3 51.6304C418.766 50.1903 420.309 49.2388 421.929 48.7759C423.575 48.313 425.812 48.0815 428.641 48.0815H430.57V55.4878H429.104C425.375 55.4878 422.585 55.8607 420.733 56.6064C418.908 57.3522 417.545 58.7152 416.645 60.6953C415.77 62.6497 415.333 66.1729 415.333 71.2646V79.481H423.472V86H400.482V79.481H408.004ZM440.445 79.481V55.1792H434.234V48.6602H447.774V53.3662C452.197 49.8431 456.53 48.0815 460.773 48.0815C465.042 48.0815 467.987 50.0231 469.607 53.9062C474.467 50.0231 478.993 48.0815 483.185 48.0815C485.602 48.0815 487.583 48.6216 489.125 49.7017C490.694 50.756 491.749 52.1061 492.289 53.752C492.829 55.3721 493.099 57.7765 493.099 60.9653V79.481H499.618V86H485.77V62.2769C485.77 60.1167 485.667 58.5994 485.461 57.7251C485.281 56.825 484.792 56.0921 483.995 55.5264C483.224 54.9349 482.285 54.6392 481.179 54.6392C478.042 54.6392 474.48 56.2464 470.494 59.4609V79.481H476.897V86H463.165V61.5825C463.165 59.1395 462.805 57.3779 462.085 56.2979C461.391 55.1921 460.195 54.6392 458.498 54.6392C455.72 54.6392 452.146 56.2464 447.774 59.4609V79.481H454.332V86H433.771V79.481H440.445ZM503.282 86V73.1934H509.84V74.4277C510.071 76.1764 511.01 77.6165 512.656 78.748C514.327 79.8796 516.295 80.4453 518.558 80.4453C520.924 80.4453 522.814 80.0339 524.228 79.2109C525.642 78.388 526.35 77.2437 526.35 75.7778C526.35 74.3634 525.758 73.3219 524.575 72.6533C523.418 71.9847 521.104 71.3675 517.632 70.8018C512.489 69.9274 508.811 68.5259 506.6 66.5972C504.414 64.6427 503.321 62.1226 503.321 59.0366C503.321 55.925 504.517 53.3276 506.908 51.2446C509.3 49.1359 512.45 48.0815 516.359 48.0815C519.882 48.0815 522.917 48.8016 525.462 50.2417V48.6602H531.981V61.0425H525.462V58.7666C523.482 55.7064 520.602 54.1763 516.822 54.1763C514.893 54.1763 513.299 54.6006 512.039 55.4492C510.804 56.2721 510.187 57.3779 510.187 58.7666C510.187 60.181 510.753 61.1582 511.884 61.6982C513.042 62.2126 515.51 62.7655 519.291 63.3569C522.917 63.9227 525.655 64.5913 527.507 65.3628C529.358 66.1086 530.889 67.3687 532.097 69.1431C533.332 70.8918 533.949 72.9362 533.949 75.2764C533.949 78.748 532.611 81.5125 529.937 83.5698C527.288 85.6014 523.842 86.6172 519.599 86.6172C515.613 86.6172 512.36 85.7171 509.84 83.917V86H503.282Z" fill="white"/>
<path d="M0 25.6634C0 11.4899 11.4899 0 25.6634 0V0C39.8369 0 51.3267 11.4899 51.3267 25.6634V42.3267C51.3267 47.2973 47.2973 51.3267 42.3267 51.3267H25.6634C11.4899 51.3267 0 39.8369 0 25.6634V25.6634Z" fill="#1AB5FD"/>
<rect x="56.6733" width="51.3267" height="51.3267" rx="13" fill="white"/>
<rect y="56.6733" width="108" height="51.3267" rx="9" fill="white"/>
</svg>
